<?xml version="1.0" encoding="UTF-8"?>
<svg width="201px" height="82px" viewBox="0 0 201 82" version="1.1" xmlns="http://www.w3.org/2000/svg" xmlns:xlink="http://www.w3.org/1999/xlink">
    <!-- Generator: Sketch 47.1 (45422) - http://www.bohemiancoding.com/sketch -->
    <title>logo</title>
    <desc>Created with Sketch.</desc>
    <defs></defs>
    <g id="Page-1" stroke="none" stroke-width="1" fill="none" fill-rule="evenodd">
        <g id="Artboard">
            <g id="logo">
                <path d="M93.1773965,43.9275774 C92.6056175,42.171399 91.9929971,40.4973116 91.4212181,38.8224075 C90.8085977,37.1479118 90.2368187,35.4325747 89.6241983,33.7172376 L89.1749433,33.7172376 C88.562323,35.473416 87.9905439,37.1479118 87.4187649,38.8224075 C86.8469859,40.4560619 86.2343655,42.171399 85.6217451,43.9688272 L93.1773965,43.9688272 L93.1773965,43.9275774 Z M98.2825665,51.7286854 C98.3234078,51.9733252 98.3234078,52.2187818 98.2008837,52.4634215 C98.0783597,52.7084696 97.8333115,52.8718351 97.547422,52.9943592 C97.2615325,53.1168832 96.975643,53.0760419 96.6897534,52.9539262 C96.4038639,52.7901524 96.1996571,52.5455126 96.1179744,52.2187818 L96.1179744,52.2592147 C95.7504022,51.1977478 95.3828299,50.2171467 95.0560991,49.2782039 C94.7293682,48.3388526 94.361796,47.3178186 93.9942237,46.2555349 L84.8457593,46.2555349 C84.5190284,47.2765689 84.1514562,48.2976028 83.8247253,49.2782039 C83.4979944,50.2579881 83.1304222,51.2381807 82.8036913,52.3000561 C82.6403259,52.5859456 82.4361191,52.7901524 82.1502295,52.9539262 C81.86434,53.1168832 81.5784505,53.158133 81.292561,53.0356089 L81.3334024,53.0356089 C81.0066715,52.9126764 80.7616233,52.7084696 80.6390993,52.4229885 C80.5165752,52.137099 80.5165752,51.8508011 80.5982579,51.5244786 L80.5982579,51.5649116 C81.7009746,48.3388526 82.8036913,45.1119768 83.906408,41.9267592 C85.0091247,38.7407248 86.1118414,35.5142574 87.2145581,32.2469487 C87.4596063,31.7164194 87.7863371,31.4301215 88.2764334,31.4301215 L90.4410255,31.4301215 C90.7677564,31.4301215 91.0128045,31.5122126 91.1761699,31.6343283 C91.3395354,31.7976937 91.4620595,32.0019005 91.5437422,32.2469487 L91.5029008,32.2061073 L98.2825665,51.7286854 Z" id="Fill-1" fill="#FFFFFF" fill-rule="nonzero"></path>
                <path d="M117.355563,31.4302848 C117.682294,31.4302848 117.968183,31.5528089 118.17239,31.7570157 C118.376597,32.0020639 118.499121,32.247112 118.499121,32.5738429 L118.499121,51.9326472 C118.499121,52.2593781 118.376597,52.5452676 118.17239,52.7494744 C117.968183,52.9536812 117.682294,53.0353639 117.355563,53.0353639 L115.640226,53.0353639 C115.354336,53.0353639 115.15013,52.9945225 115.027605,52.8719985 C114.86424,52.7494744 114.741716,52.6269503 114.619192,52.4227435 L105.266521,34.0032905 L105.266521,51.9326472 C105.266521,52.2593781 105.143996,52.5452676 104.93979,52.7494744 C104.735583,52.9536812 104.449693,53.0353639 104.122963,53.0353639 C103.796232,53.0353639 103.510342,52.9536812 103.306135,52.7494744 C103.101929,52.5452676 102.979404,52.2593781 102.979404,51.9326472 L102.979404,32.5738429 C102.979404,32.247112 103.101929,31.9612225 103.306135,31.7570157 C103.510342,31.5119676 103.796232,31.4302848 104.122963,31.4302848 L105.8383,31.4302848 C106.328396,31.4302848 106.655127,31.6344916 106.859334,32.0837466 L106.818492,32.0429052 C108.370464,35.1468485 109.922436,38.2507918 111.474407,41.3138938 C113.026379,44.3769957 114.619192,47.480939 116.171163,50.544041 L116.171163,32.5738429 C116.171163,32.247112 116.293688,31.9612225 116.497894,31.7570157 C116.742943,31.5528089 117.028832,31.4302848 117.355563,31.4302848" id="Fill-3" fill="#FFFFFF" fill-rule="nonzero"></path>
                <path d="M136.060824,50.7481661 C136.387555,50.7481661 136.673444,50.8706902 136.877651,51.074897 C137.081858,51.3199451 137.16354,51.5649933 137.16354,51.8917241 C137.16354,52.2188634 137.081858,52.5043445 136.877651,52.7085513 C136.673444,52.9127581 136.387555,52.9944408 136.060824,52.9944408 L132.303419,52.9944408 C131.241543,52.9944408 130.261351,52.790234 129.281158,52.4230702 C128.341807,52.0146566 127.484138,51.4833106 126.748994,50.7481661 C126.013849,49.9725887 125.44207,49.1145117 125.033657,48.1751605 C124.625243,47.2358092 124.421036,46.2147752 124.421036,45.1937412 L124.421036,39.2309028 C124.421036,38.1281861 124.625243,37.1071521 125.033657,36.1678008 C125.44207,35.2284496 126.013849,34.370781 126.708152,33.6764779 C127.402456,32.9413335 128.260124,32.4103958 129.199475,32.0019822 C130.138827,31.5935686 131.159861,31.3893618 132.262577,31.3893618 L135.979141,31.3893618 C136.305872,31.3893618 136.591761,31.5118859 136.795968,31.7160927 C137.000175,31.9611408 137.122699,32.206189 137.122699,32.5329199 C137.122699,32.8596507 137.000175,33.1455402 136.795968,33.349747 C136.591761,33.5539538 136.305872,33.6356366 135.979141,33.6356366 L132.262577,33.6356366 C131.486592,33.6356366 130.792288,33.799002 130.097985,34.0848915 C129.403682,34.370781 128.831903,34.7791946 128.341807,35.2692909 C127.851711,35.7593872 127.443297,36.3720076 127.157407,37.0254694 C126.871518,37.7197725 126.708152,38.4140756 126.708152,39.1900614 L126.708152,45.1528999 C126.708152,46.7052799 127.23909,48.011795 128.341807,49.032829 C128.831903,49.604608 129.403682,50.0130216 130.097985,50.2580698 C130.751447,50.5439593 131.486592,50.6664834 132.262577,50.6664834 L136.060824,50.6664834 L136.060824,50.7481661 Z" id="Fill-5" fill="#FFFFFF" fill-rule="nonzero"></path>
                <path d="M156.890121,31.4302848 C157.216852,31.4302848 157.502742,31.5528089 157.706948,31.7570157 C157.911155,32.0020639 157.992429,32.247112 157.992429,32.5738429 L157.992429,51.9326472 C157.992429,52.2593781 157.911155,52.5452676 157.706948,52.7494744 C157.502742,52.9536812 157.216852,53.0353639 156.890121,53.0353639 C156.562982,53.0353639 156.277501,52.9536812 156.073294,52.7494744 C155.869087,52.5452676 155.746155,52.2593781 155.746155,51.9326472 L155.746155,42.2940864 L144.556031,42.2940864 L144.556031,51.9326472 C144.556031,52.2593781 144.433507,52.5452676 144.2293,52.7494744 C144.025093,52.9536812 143.739204,53.0353639 143.412473,53.0353639 C143.085742,53.0353639 142.799852,52.9536812 142.595645,52.7494744 C142.391439,52.5452676 142.268915,52.2593781 142.268915,51.9326472 L142.268915,32.5738429 C142.268915,32.247112 142.391439,31.9612225 142.595645,31.7570157 C142.799852,31.5119676 143.085742,31.4302848 143.412473,31.4302848 C143.739204,31.4302848 144.025093,31.5528089 144.2293,31.7570157 C144.433507,32.0020639 144.556031,32.247112 144.556031,32.5738429 L144.556031,40.0069703 L155.746155,40.0069703 L155.746155,32.5738429 C155.746155,32.247112 155.869087,31.9612225 156.073294,31.7570157 C156.236251,31.5528089 156.522549,31.4302848 156.890121,31.4302848" id="Fill-7" fill="#FFFFFF" fill-rule="nonzero"></path>
                <path d="M177.63745,39.2719075 C177.63745,38.536763 177.514926,37.8424599 177.229036,37.1889982 C176.943147,36.5355364 176.534733,35.922916 176.003796,35.3919784 C175.472858,34.8201993 174.860238,34.4117857 174.206776,34.1667376 C173.553314,33.9216894 172.859011,33.758324 172.123867,33.758324 C171.347881,33.758324 170.653169,33.9216894 169.959274,34.207579 C169.305813,34.4934685 168.693192,34.9018821 168.202688,35.3919784 C167.713,35.8820747 167.304586,36.4946951 167.018697,37.1481568 C166.732807,37.8424599 166.569033,38.536763 166.569033,39.3127489 L166.569033,45.2755873 C166.569033,46.0515731 166.732807,46.7458762 167.018697,47.4401794 C167.304586,48.0936411 167.713,48.7062615 168.202688,49.1963578 C168.693192,49.6864541 169.305813,50.0948677 169.959274,50.3807572 C170.612736,50.6662383 171.347881,50.8300122 172.123867,50.8300122 C172.899444,50.8300122 173.594155,50.6662383 174.288459,50.3807572 C174.982762,50.0948677 175.554132,49.6864541 176.044637,49.1963578 C176.534733,48.7062615 176.943147,48.0936411 177.229036,47.4401794 C177.514926,46.7863092 177.678291,46.0515731 177.678291,45.2755873 L177.63745,39.2719075 Z M172.082617,31.4303665 C173.1449,31.4303665 174.124685,31.6345733 175.064444,32.0021456 C176.003796,32.4105591 176.861464,32.9414968 177.63745,33.7174826 C178.372594,34.4526271 178.944374,35.3102957 179.311946,36.2496469 C179.679518,37.1889982 179.883725,38.2100322 179.883725,39.2719075 L179.883725,45.234746 C179.883725,46.2966213 179.679518,47.3176553 179.271104,48.2570065 C178.862691,49.1963578 178.290912,50.0536179 177.5962,50.7483295 C176.902306,51.4426326 176.044637,52.0144116 175.105286,52.4228252 C174.165934,52.8312388 173.1449,53.0354456 172.042184,53.0354456 C170.939467,53.0354456 169.918433,52.8312388 168.979082,52.4228252 C168.039731,52.0144116 167.181654,51.4426326 166.487759,50.7483295 C165.793456,50.0536179 165.221677,49.1963578 164.813263,48.2570065 C164.40485,47.3176553 164.200643,46.2966213 164.200643,45.234746 L164.200643,39.2719075 C164.200643,38.1691908 164.40485,37.1481568 164.813263,36.2088056 C165.221677,35.2694543 165.793456,34.4117857 166.487759,33.7174826 C167.181654,32.9823382 168.039731,32.4514005 168.979082,32.0429869 C170.000116,31.6345733 171.02115,31.4303665 172.082617,31.4303665 L172.082617,31.4303665 Z" id="Fill-9" fill="#FFFFFF" fill-rule="nonzero"></path>
                <path d="M188.092675,42.0897162 L193.483734,42.0897162 C194.055921,42.0897162 194.586451,41.9671922 195.117388,41.7629854 C195.648326,41.5587786 196.097989,41.2320477 196.465153,40.8644755 C196.832725,40.4973116 197.159456,40.0476483 197.363663,39.5167106 C197.56787,39.0266143 197.690394,38.4552437 197.690394,37.8830562 C197.690394,37.3112772 197.56787,36.7803395 197.363663,36.2494019 C197.159456,35.7593056 196.832725,35.3100506 196.465153,34.901637 C196.097989,34.4932234 195.648326,34.2073339 195.117388,34.0031271 C194.586451,33.7989203 194.055921,33.6763962 193.483734,33.6763962 L188.133924,33.6763962 L188.133924,42.0897162 L188.092675,42.0897162 Z M199.936669,51.3202718 L199.936669,51.3202718 C200.059193,51.5244786 200.100034,51.8103682 200.059193,52.0958493 C200.018352,52.3817388 199.854986,52.6271953 199.569505,52.8314021 C199.283207,53.0356089 198.997318,53.1168832 198.711428,53.0356089 C198.384697,52.9539262 198.18049,52.7497194 198.017125,52.4634215 L198.017125,52.5042629 C197.119023,51.1160651 196.260946,49.7683002 195.444119,48.4201269 C194.586451,47.1136118 193.728782,45.7654386 192.871114,44.3772408 L188.174357,44.3772408 L188.174357,51.9328922 C188.174357,52.2592147 188.051833,52.5455126 187.847626,52.7497194 C187.64342,52.9539262 187.35753,53.0356089 187.030799,53.0356089 C186.704477,53.0356089 186.418179,52.9539262 186.213972,52.7497194 C186.009765,52.5455126 185.88765,52.2592147 185.88765,51.9328922 L185.88765,32.5736795 C185.88765,32.2469487 186.009765,31.9610591 186.213972,31.7568524 C186.418179,31.5122126 186.704477,31.4301215 187.071641,31.4301215 L193.483734,31.4301215 C194.382244,31.4301215 195.239912,31.5934869 196.015898,31.9610591 C196.791884,32.28779 197.486187,32.7778863 198.057966,33.3500738 C198.629745,33.9214444 199.119842,34.6157475 199.446572,35.4325747 C199.773712,36.2089689 199.977919,37.0662291 199.977919,37.964739 C199.977919,38.6998834 199.854986,39.3941865 199.650779,40.0476483 C199.405731,40.7015184 199.119842,41.3141388 198.711428,41.8446681 C198.303014,42.3756058 197.812918,42.8657021 197.241139,43.2741157 C196.66936,43.6825293 196.05674,43.9688272 195.403278,44.173034 L199.936669,51.3202718 Z" id="Fill-11" fill="#FFFFFF" fill-rule="nonzero"></path>
                <path d="M61.122934,53.3376868 C60.5138562,51.9795086 59.410533,50.9393011 58.0178011,50.4090907 C56.6250692,49.8773253 55.1050903,49.9200843 53.744946,50.5257057 C52.3824739,51.1328823 51.3381188,52.2329522 50.809734,53.612121 L47.8155543,61.3087235 C46.1660009,65.6110463 41.3112242,67.7762018 36.9964708,66.1295952 C35.9179764,65.7183324 34.7060279,66.2586493 34.2924757,67.3353964 C33.8796994,68.4129207 34.4212743,69.6202765 35.5013205,70.0323167 C41.9753906,72.4975619 49.2540641,69.2541048 51.7245146,62.8091721 L54.7194704,55.1125699 C54.8521484,54.765834 55.1128493,54.4913995 55.4534672,54.3397999 C55.7940852,54.1874226 56.173498,54.1780935 56.522651,54.3102573 C57.24113,54.5846918 57.6026972,55.3908914 57.3357892,56.0874728 L53.3732921,66.1140465 C51.500281,71.0025552 47.0908682,74.3595177 41.868317,74.8741794 L21.593398,76.8745184 L7.82358472,61.9019059 C4.27619157,58.045053 3.23649191,52.6115628 5.10252002,47.7432676 L9.06501714,37.7166936 C9.19769522,37.3691805 9.45839603,37.094746 9.79978995,36.9431464 C10.1396321,36.7907691 10.5190449,36.7806625 10.8681977,36.9136038 C11.5866767,37.1872608 11.947468,37.9942379 11.6774565,38.7009259 L8.68172488,46.3967509 C7.48374259,49.5235926 7.5784018,52.9287561 8.94863285,55.9840741 C10.318088,59.0401693 12.799401,61.3810249 15.9355697,62.5759417 C22.2808412,64.9937634 28.4592951,61.8933542 31.3324354,54.8225866 L40.5547263,30.7609864 C40.661024,30.4834424 40.7021466,30.1981238 40.6889563,29.9190249 C40.6625758,29.1027186 40.1559162,28.343165 39.3435539,28.0329686 C33.2853636,25.7247654 30.2748901,18.8429145 32.6328358,12.6918521 C33.7772814,9.70650334 35.9986694,7.33843761 38.8888793,6.02224088 C41.7666749,4.71304104 44.966467,4.60653251 47.8939196,5.72292855 C50.8237002,6.83854717 53.1350923,9.0449065 54.4036809,11.9354083 C55.677701,14.8360167 55.7490834,18.0786963 54.6046378,21.0648225 C53.263115,24.5648331 50.4520463,27.1972266 46.892239,28.28408 C45.7865881,28.622264 45.1650962,29.7899708 45.5041622,30.8923731 C45.7796052,31.7910873 46.6090372,32.3702761 47.5059721,32.3702761 C47.7084807,32.3702761 47.9156449,32.3399563 48.1197053,32.2777615 C52.922497,30.8107423 56.7119693,27.2671956 58.5182536,22.5559421 C60.0568538,18.5389376 59.9590911,14.172865 58.2412589,10.2600368 C56.5187715,6.33632443 53.3756198,3.33931415 49.3898457,1.82020698 C45.4048477,0.302654682 41.0567306,0.444147776 37.150098,2.2229181 C33.252776,3.99624635 30.2585962,7.18450557 28.7192202,11.2007326 C25.793319,18.8351401 29.0319059,27.3021801 35.9583229,31.0509697 L27.4343375,53.2925954 C25.0500115,59.1637814 20.7026702,59.9202252 17.4307199,58.6739977 C15.340458,57.8779046 13.6854734,56.3168159 12.7730206,54.2799375 C11.859016,52.2422813 11.7961685,49.9729497 12.5914611,47.897977 L15.5871927,40.2013747 C16.6858604,37.3334185 15.2395917,34.1070649 12.3633479,33.0116597 C10.9706159,32.4798944 9.45218888,32.5226534 8.08894089,33.1290523 C6.7272447,33.7362288 5.68366557,34.8355212 5.15916039,36.2061384 L1.19666326,46.2327121 C-1.24663092,52.608453 0.109634001,59.6947693 4.73629747,64.724771 L19.9213437,81.2367039 L42.2795415,79.031122 C49.091902,78.3594185 54.8428378,73.9816845 57.2791488,67.6253794 L61.2416459,57.5980282 C61.7739101,56.20953 61.7320116,54.6958649 61.122934,53.3376868" id="Fill-21" fill="#FEFEFE" fill-rule="nonzero"></path>
                <path d="M37.9576497,18.8801536 C37.4059884,18.8801536 36.8613097,18.6570299 36.4772416,18.2675352 C36.0861904,17.8842599 35.8627326,17.3416106 35.8627326,16.7919643 C35.8627326,16.659023 35.8766988,16.5198622 35.9046309,16.3876983 C35.92558,16.2555345 35.9674785,16.1233706 36.023343,15.9974262 C36.0722242,15.8722592 36.1350718,15.7470923 36.2118854,15.6359191 C36.288699,15.5177491 36.3794787,15.4127954 36.4772416,15.3156161 C36.9590726,14.8281646 37.6845346,14.6128152 38.3626672,14.7442017 C38.4945693,14.7721893 38.6280232,14.8149482 38.7537182,14.8631491 C38.8863965,14.918347 39.0051083,14.9813192 39.1168374,15.0582852 C39.2355492,15.1344738 39.3395192,15.2176593 39.4380578,15.3156161 C39.5358208,15.4127954 39.6196175,15.5177491 39.6956552,15.6359191 C39.7724688,15.7470923 39.8353164,15.8722592 39.8911809,15.9974262 C39.940838,16.1233706 39.9819606,16.2555345 40.0098927,16.3876983 C40.037825,16.5198622 40.0525671,16.659023 40.0525671,16.7919643 C40.0525671,17.3416106 39.8283332,17.8842599 39.4380578,18.2675352 C39.0462309,18.6570299 38.5093113,18.8801536 37.9576497,18.8801536" id="Fill-24" fill="#FEFEFE" fill-rule="nonzero"></path>
                <path d="M36.4771641,15.3154612 C36.3786253,15.4134179 36.2878456,15.5175942 36.2118079,15.6365417 L36.2118079,15.6365417 C36.1349941,15.7477148 36.0721467,15.8728818 36.0232652,15.9972713 L36.0232652,15.9972713 C35.9674008,16.1232157 35.9255025,16.2553796 35.9045534,16.3875435 L35.9045534,16.3875435 C35.8766211,16.5197073 35.8626549,16.6588681 35.8626549,16.791032 L35.8626549,16.791032 C35.8626549,17.3414557 36.085337,17.884105 36.4771641,18.2681577 L36.4771641,18.2681577 C36.8612322,18.6576524 37.4059106,18.8799987 37.9575722,18.8799987 L37.9575722,18.8799987 C38.5092336,18.8799987 39.0461532,18.6576524 39.4379803,18.2681577 L39.4379803,18.2681577 C39.8282557,17.884105 40.0517135,17.3414557 40.0517135,16.791032 L40.0517135,16.791032 C40.0517135,16.6588681 40.0377473,16.5197073 40.0098152,16.3875435 L40.0098152,16.3875435 C39.9818829,16.2553796 39.9399846,16.1232157 39.8911031,15.9972713 L39.8911031,15.9972713 C39.8352387,15.8728818 39.7723913,15.7477148 39.6955775,15.6365417 L39.6955775,15.6365417 C39.6187639,15.5175942 39.5349672,15.4134179 39.4379803,15.3154612 L39.4379803,15.3154612 C39.3394417,15.2175044 39.2354717,15.1343189 39.1167597,15.0581303 L39.1167597,15.0581303 C39.0050308,14.9811643 38.8863187,14.9181921 38.7528648,14.8629943 L38.7528648,14.8629943 C38.6279457,14.8147933 38.4944918,14.7720344 38.3625895,14.7448242 L38.3625895,14.7448242 C38.2306873,14.7191689 38.0972334,14.7059525 37.9637793,14.7059525 L37.9637793,14.7059525 C37.4113418,14.7059525 36.8651116,14.9228567 36.4771641,15.3154612" id="Fill-27"></path>
                <path d="M43.5433199,18.8801542 C42.9916583,18.8801542 42.4469798,18.6570305 42.0559286,18.2675357 C41.6718605,17.8842605 41.4484025,17.3416112 41.4484025,16.7919649 C41.4484025,16.6590236 41.4623687,16.5198628 41.490301,16.3876989 C41.5112502,16.2555351 41.5531484,16.1233712 41.6090129,15.9974268 C41.6578943,15.8652629 41.7207417,15.7470929 41.7975555,15.6359197 C41.8743691,15.5177497 41.9651488,15.412796 42.0559286,15.3156167 C42.5447426,14.8351621 43.2702046,14.6128158 43.9483371,14.7442023 C44.0872224,14.7721899 44.2136933,14.8149488 44.3393884,14.8631497 C44.4720664,14.9183476 44.5907784,14.9813198 44.7025073,15.0582858 C44.8212194,15.1344744 44.9251892,15.2176599 45.023728,15.3156167 C45.4140034,15.7051114 45.638237,16.2415412 45.638237,16.7919649 C45.638237,17.3416112 45.4140034,17.8842605 45.023728,18.2675357 C44.6319008,18.6570305 44.0949813,18.8801542 43.5433199,18.8801542" id="Fill-29" fill="#FEFEFE" fill-rule="nonzero"></path>
                <path d="M42.0558511,15.3154612 C41.9642954,15.4134179 41.8742916,15.5175942 41.7974778,15.6365417 L41.7974778,15.6365417 C41.7206642,15.7477148 41.6578166,15.8658849 41.6089354,15.9972713 L41.6089354,15.9972713 C41.5530709,16.1232157 41.5111724,16.2553796 41.4902233,16.3875435 L41.4902233,16.3875435 C41.4622912,16.5197073 41.448325,16.6588681 41.448325,16.791032 L41.448325,16.791032 C41.448325,17.3414557 41.6717828,17.884105 42.0558511,18.2681577 L42.0558511,18.2681577 C42.4469021,18.6576524 42.9915808,18.8799987 43.5432421,18.8799987 L43.5432421,18.8799987 C44.0949037,18.8799987 44.6318233,18.6576524 45.0236505,18.2681577 L45.0236505,18.2681577 C45.4139256,17.884105 45.6381595,17.3414557 45.6381595,16.791032 L45.6381595,16.791032 C45.6381595,16.2413858 45.4139256,15.7057333 45.0236505,15.3154612 L45.0236505,15.3154612 C44.9258875,15.2175044 44.8211416,15.1343189 44.7024298,15.0581303 L44.7024298,15.0581303 C44.5907007,14.9811643 44.4719889,14.9181921 44.3393108,14.8629943 L44.3393108,14.8629943 C44.2136158,14.8147933 44.0879208,14.7720344 43.9482596,14.7448242 L43.9482596,14.7448242 C43.8186851,14.7199463 43.6875587,14.7067299 43.5564324,14.7067299 L43.5564324,14.7067299 C43.0008914,14.7067299 42.4507818,14.9267439 42.0558511,15.3154612" id="Fill-31"></path>
                <path d="M49.1290675,18.8801542 C48.9894063,18.8801542 48.8559522,18.8661604 48.7170671,18.8381727 C48.5843888,18.8101851 48.450935,18.7752005 48.3260158,18.7200027 C48.2003208,18.6718017 48.0816087,18.6080521 47.9628969,18.5318635 C47.851168,18.4548975 47.7394389,18.3647151 47.6486592,18.2675357 C47.5508965,18.169579 47.4601167,18.0654028 47.3833031,17.9542296 C47.3064894,17.8430565 47.2436419,17.7178895 47.1947605,17.5919451 C47.138896,17.4667781 47.0969978,17.3338368 47.0760484,17.2024504 C47.0481163,17.0695091 47.0341501,16.9311257 47.0341501,16.7919649 C47.0341501,16.2415412 47.2576081,15.7051114 47.6486592,15.3156167 C48.4230026,14.5428467 49.827373,14.5358498 50.6094756,15.3156167 C50.7072383,15.412796 50.7910351,15.5177497 50.8670727,15.6359197 C50.9438863,15.7470929 51.0067339,15.8652629 51.0625984,15.9974268 C51.1122557,16.1233712 51.1533781,16.2555351 51.1813104,16.3876989 C51.2092425,16.5198628 51.2239846,16.6590236 51.2239846,16.7919649 C51.2239846,16.9311257 51.2092425,17.0695091 51.1813104,17.2024504 C51.1533781,17.3338368 51.1122557,17.4667781 51.0625984,17.5919451 C51.0067339,17.7178895 50.9438863,17.8430565 50.8670727,17.9542296 C50.7910351,18.0654028 50.7002553,18.169579 50.6094756,18.2675357 C50.5109368,18.3647151 50.406967,18.4548975 50.2882549,18.5318635 C50.176526,18.6080521 50.057814,18.6718017 49.925136,18.7200027 C49.7994409,18.7752005 49.6659868,18.8101851 49.5340847,18.8381727 C49.4014067,18.8661604 49.2609696,18.8801542 49.1290675,18.8801542" id="Fill-33" fill="#FEFEFE" fill-rule="nonzero"></path>
                <path d="M49.0769273,14.7339401 C48.5477666,14.7463791 48.0248132,14.9407377 47.6485039,15.3154612 L47.6485039,15.3154612 C47.2574529,15.7057333 47.0347708,16.2413858 47.0347708,16.791032 L47.0347708,16.791032 C47.0347708,16.9309702 47.0479611,17.070131 47.0766693,17.2022949 L47.0766693,17.2022949 C47.0976184,17.3344588 47.1387408,17.4666226 47.1953812,17.5917896 L47.1953812,17.5917896 C47.2434867,17.717734 47.30711,17.842901 47.3839238,17.9540741 L47.3839238,17.9540741 C47.4599615,18.0652473 47.5507412,18.1694235 47.6485039,18.2681577 L47.6485039,18.2681577 C47.7400598,18.365337 47.8517887,18.4555194 47.9627416,18.5324855 L47.9627416,18.5324855 C48.0814537,18.6086741 48.2001656,18.6716462 48.3258606,18.7198472 L48.3258606,18.7198472 C48.4515556,18.7758225 48.5842336,18.8100296 48.7169119,18.8380172 L48.7169119,18.8380172 C48.8565731,18.8660049 48.9892511,18.8799987 49.1296882,18.8799987 L49.1296882,18.8799987 C49.2615903,18.8799987 49.4012515,18.8660049 49.5347054,18.8380172 L49.5347054,18.8380172 C49.6666077,18.8100296 49.8000616,18.7758225 49.9249808,18.7198472 L49.9249808,18.7198472 C50.0576588,18.6716462 50.1763708,18.6086741 50.2888756,18.5324855 L50.2888756,18.5324855 C50.4068118,18.4555194 50.5115577,18.365337 50.6093204,18.2681577 L50.6093204,18.2681577 C50.7001001,18.1694235 50.7908798,18.0652473 50.8676934,17.9540741 L50.8676934,17.9540741 C50.9445072,17.842901 51.0073546,17.717734 51.063219,17.5917896 L51.063219,17.5917896 C51.1121005,17.4666226 51.1539988,17.3344588 51.1819311,17.2022949 L51.1819311,17.2022949 C51.2098632,17.070131 51.2238294,16.9309702 51.2238294,16.791032 L51.2238294,16.791032 C51.2238294,16.6588681 51.2098632,16.5197073 51.1819311,16.3875435 L51.1819311,16.3875435 C51.1539988,16.2553796 51.1121005,16.1232157 51.063219,15.9972713 L51.063219,15.9972713 C51.0073546,15.8658849 50.9445072,15.7477148 50.8676934,15.6365417 L50.8676934,15.6365417 C50.7908798,15.5175942 50.7070831,15.4134179 50.6093204,15.3154612 L50.6093204,15.3154612 C50.2330111,14.9399603 49.7116095,14.7463791 49.1855526,14.7339401 L49.1855526,14.7339401 L49.0769273,14.7339401 L49.0769273,14.7339401 L49.0769273,14.7339401 Z" id="Fill-35"></path>
            </g>
        </g>
    </g>
</svg>