<?xml version="1.0" encoding="utf-8"?>
<!-- Generator: Adobe Illustrator 24.3.0, SVG Export Plug-In . SVG Version: 6.00 Build 0)  -->
<svg version="1.1" id="Ebene_1" xmlns="http://www.w3.org/2000/svg" xmlns:xlink="http://www.w3.org/1999/xlink" x="0px" y="0px"
	 viewBox="0 0 509 130" style="enable-background:new 0 0 509 130;" xml:space="preserve">
<style type="text/css">
	.st0{fill:#E32933;}
	.st1{fill:#6DC5D7;}
	.st2{fill:#313886;}
</style>
<g>
	<path class="st0" d="M80.4,65.3c-5.3-5.4-12.8-8.7-22.4-9.9L83.4,30V7.5H7.2v24.7h43.3L27.6,55.4v17.5h9c1.3,0,2.6,0,3.8,0.1
		c6.5,0.3,11.3,1.3,14.4,3.1c3.7,2.1,5.6,5.4,5.6,9.8c0,4-1.4,7.2-4.4,9.5s-7.3,3.5-13.1,3.5c-7.4,0-14.6-2.3-21.6-6.8L3.7,109.7
		c10.9,9.4,24.4,14,40.5,14c13.8,0,24.7-3.3,32.5-9.9S88.4,98.2,88.4,87C88.4,78,85.8,70.7,80.4,65.3z"/>
</g>
<g>
	<g>
		<path class="st1" d="M70.5,118.1c-8.8-3.8-15.7-8.9-20.8-15.4L64,86.1c4.3,4.8,9.7,8.5,16,11.1s13.1,4,20.1,4c6.2,0,11-1,14.4-3.1
			c3.4-2.1,5.1-4.9,5.1-8.5c0-2.9-1.2-5.3-3.6-7.2c-2.4-2-6.3-3.6-11.8-4.9l-17.9-4.1C75,70.7,66.8,66.8,61.5,61.6
			c-5.3-5.2-7.9-11.7-7.9-19.5c0-10.4,4.1-18.7,12.2-25.1C74,10.7,85.1,7.5,99,7.5c9.7,0,18.4,1.5,26.3,4.6s14.2,7.4,18.9,12.9
			l-14.1,17.1c-9.4-8.1-20-12.1-31.8-12.1c-6.1,0-10.6,1-13.7,3c-3.1,2-4.7,4.8-4.7,8.2c0,2.7,1.2,4.9,3.5,6.6
			c2.3,1.7,6.3,3.1,11.9,4.4l19,4.5c11.3,2.5,19.3,6.2,24.2,11.4s7.4,11.6,7.4,19.6c0,11.1-4.1,19.9-12.2,26.3
			c-8.1,6.4-19.4,9.6-33.9,9.6C89.1,123.7,79.3,121.8,70.5,118.1z"/>
	</g>
</g>
<path class="st2" d="M80,97.2c-6.3-2.7-11.7-6.4-16-11.1l-5.4,6.3c-0.6,1-1.3,1.8-2.2,2.6l-6.6,7.8c5,6.5,11.9,11.6,20.7,15.3
	c2.3-1.2,4.4-2.6,6.3-4.3c4.7-4,7.9-8.8,9.8-14.4C84.3,98.8,82.1,98.1,80,97.2z"/>
<path class="st2" d="M53.6,42.1c0,7.8,2.6,14.3,7.9,19.5c5.2,5.1,13.3,8.9,24.2,11.5c-1.3-2.9-3-5.5-5.3-7.8
	c-5.3-5.4-12.8-8.7-22.4-9.9L83.4,30V9.2c-6.9,1.5-12.7,4.1-17.5,7.9C57.7,23.4,53.6,31.8,53.6,42.1z"/>
<g>
	<path d="M220.9,63.4c1.4,1.3,2.1,3,2.1,5.3c0,1.7-0.4,3.1-1.2,4.4c-0.8,1.2-1.9,2.2-3.4,2.9s-3.2,1-5.3,1c-2,0-3.8-0.3-5.4-1
		c-1.6-0.7-3-1.6-4.2-3l2.7-3.2c1.9,1.9,4.2,2.9,6.8,2.9c1.7,0,3-0.4,3.9-1.1s1.3-1.8,1.3-3.1c0-1.4-0.6-2.4-1.7-3.1
		c-1.1-0.7-3-1-5.6-1h-1.4v-3l6.7-7.1H205v-4.2h17v3.8l-7,7.3C217.5,61.4,219.5,62.2,220.9,63.4z"/>
	<path d="M260.2,75.4c-1.9-1-3.3-2.5-4.2-4.4l3.5-2.5c0.8,1.3,1.8,2.4,3.2,3.1s2.9,1.1,4.6,1.1c1.7,0,2.9-0.3,3.8-1
		c0.9-0.6,1.4-1.5,1.4-2.6c0-0.9-0.3-1.5-0.9-2.1c-0.6-0.5-1.6-1-3.1-1.3l-4.3-1c-2.5-0.6-4.3-1.5-5.5-2.7c-1.2-1.2-1.9-2.8-1.9-4.6
		c0-1.5,0.4-2.8,1.2-4c0.8-1.1,1.9-2.1,3.4-2.7c1.5-0.6,3.2-1,5.3-1c2.4,0,4.4,0.4,6.2,1.3c1.8,0.9,3,2,3.8,3.5l-3.4,2.5
		c-0.7-1-1.7-1.8-2.8-2.3c-1.1-0.5-2.4-0.8-3.9-0.8c-1.6,0-2.8,0.3-3.6,0.9s-1.3,1.4-1.3,2.4c0,0.8,0.3,1.4,0.9,2
		c0.6,0.5,1.7,1,3.2,1.3l4.3,1c2.5,0.6,4.3,1.5,5.5,2.7c1.2,1.2,1.8,2.8,1.8,4.6c0,1.6-0.4,3-1.2,4.3c-0.8,1.2-2,2.2-3.5,2.9
		s-3.4,1-5.5,1C264.4,77,262.2,76.5,260.2,75.4z"/>
	<path d="M330.1,52.3c1.6,1.5,2.4,3.6,2.4,6.3c0,2.8-0.8,4.9-2.4,6.3s-4,2.2-7,2.2h-6.2v9.3h-4.8V50.1h11
		C326.1,50.1,328.5,50.9,330.1,52.3z M326.4,61.9c0.7-0.7,1.1-1.7,1.1-3.2c0-1.5-0.4-2.5-1.1-3.2s-2-1-3.7-1h-5.9v8.4h5.9
		C324.5,62.9,325.7,62.5,326.4,61.9z"/>
	<path d="M386.4,72.1v4.3h-19V50.1H386v4.3h-13.9V61h13v4.3h-13v6.8L386.4,72.1L386.4,72.1z"/>
	<path d="M438.3,70.2h-11.5l-2.3,6.3h-5l10.3-26.3h5.5l10.4,26.3h-5L438.3,70.2z M436.8,66.1l-4.2-11.3l-4.2,11.3H436.8z"/>
	<path d="M487.6,65.4h-3.2v11h-4.8V50.1h4.8V61h3.3l8.5-10.9h5.7l-10.5,13.2l10.8,13.2h-5.8L487.6,65.4z"/>
</g>
</svg>
