<?xml version="1.0" encoding="utf-8"?>
<!-- Generator: Adobe Illustrator 20.0.0, SVG Export Plug-In . SVG Version: 6.00 Build 0)  -->
<!DOCTYPE svg PUBLIC "-//W3C//DTD SVG 1.1//EN" "http://www.w3.org/Graphics/SVG/1.1/DTD/svg11.dtd">
<svg version="1.1" id="Layer_1" xmlns="http://www.w3.org/2000/svg" xmlns:xlink="http://www.w3.org/1999/xlink" x="0px" y="0px"
	 viewBox="0 0 78.8 17.6" style="enable-background:new 0 0 78.8 17.6;" xml:space="preserve">
<style type="text/css">
	.st0{fill:#FFFFFF;}
</style>
<g>
	<path class="st0" d="M0.1,8.8c0-2.2,0.8-4.1,2.4-5.7C4.1,1.5,6,0.7,8.3,0.7c2.2,0,4.2,0.8,5.8,2.4s2.4,3.5,2.4,5.8
		s-0.8,4.2-2.4,5.7c-1.6,1.6-3.6,2.4-5.9,2.4c-2,0-3.8-0.7-5.5-2.1C1,13.3,0.1,11.3,0.1,8.8z M2.5,8.8c0,1.7,0.6,3.2,1.7,4.3
		c1.2,1.1,2.5,1.7,4,1.7c1.6,0,3-0.6,4.2-1.7c1.1-1.2,1.7-2.6,1.7-4.2c0-1.7-0.6-3.1-1.7-4.2S9.9,3,8.3,3s-3,0.6-4.1,1.7
		S2.5,7.1,2.5,8.8z"/>
	<path class="st0" d="M37.4,1v15.8H35V1H37.4z"/>
	<path class="st0" d="M21.5,8.3v8.3h-2.4V8.3H21.5z"/>
	<path class="st0" d="M48,8.6h7.9v0.5c0,1.2-0.1,2.2-0.4,3.1c-0.3,0.8-0.7,1.6-1.4,2.4c-1.5,1.6-3.3,2.5-5.6,2.5
		c-2.2,0-4.1-0.8-5.6-2.4c-1.6-1.6-2.3-3.5-2.3-5.7c0-2.3,0.8-4.2,2.4-5.8c1.6-1.6,3.5-2.4,5.8-2.4c1.2,0,2.4,0.3,3.4,0.8
		s2,1.3,3,2.4l-1.7,1.6C52.2,3.9,50.6,3,48.8,3c-1.7,0-3.1,0.6-4.2,1.7c-1.1,1.1-1.7,2.5-1.7,4.2s0.6,3.2,1.9,4.3
		c1.2,1.1,2.4,1.6,3.8,1.6c1.2,0,2.2-0.4,3.1-1.2c0.9-0.8,1.4-1.7,1.6-2.8h-3.9L48,8.6z"/>
	<path class="st0" d="M61.4,1v15.8H59V1H61.4z"/>
	<path class="st0" d="M65,16.8V0l11.4,12V1h2.4v16.6L67.3,5.8v11H65z"/>
	<path class="st0" d="M27.6,10.6l0.2-0.1c2.1-0.6,3.5-2.5,3.5-4.6c0-2.6-2.1-4.8-4.8-4.8h-7.8l1.5,2.4h6.3c1.3,0,2.4,1.1,2.4,2.4
		c0,1.3-1.1,2.4-2.4,2.4h-3.2l5.4,8.4h2.8L27.6,10.6z"/>
</g>
</svg>
